{"title":"A Woman Under The Influence [John Cassavetes, 1974] X264-AAC","uid":13183559,"size":2339633437,"categoryP":"video","categoryS":"movies","magnet":"?xt=urn:btih:1ad6fa1407e5ca445098c599bc8e9ec75ea02c8d&amp;dn=A+Woman+Under+The+Influence+%5BJohn+Cassavetes%2C+1974%5D+X264-AAC&amp;tr=udp%3A%2F%2Ftracker.leechers-paradise.org%3A6969&amp;tr=udp%3A%2F%2Fzer0day.ch%3A1337&amp;tr=udp%3A%2F%2Fopen.demonii.com%3A1337&amp;tr=udp%3A%2F%2Ftracker.coppersurfer.tk%3A6969&amp;tr=udp%3A%2F%2Fexodus.desync.com%3A6969","seeders":0,"leechers":1,"uploader":null,"files":2,"time":1452348679,"description":"General\r\nFormat                                   : MPEG-4\r\nFormat profile                           : Base Media\r\nCodec ID                                 : isom\r\nFile size                                : 2.18 GiB\r\nDuration                                 : 2h 26mn\r\nOverall bit rate mode                    : Variable\r\nOverall bit rate                         : 2 130 Kbps\r\nMovie name                               : A Woman Under the Influence*1974\r\nRecorded date                            : 1974\r\n\r\nVideo\r\nID                                       : 1\r\nFormat                                   : AVC\r\nFormat/Info                              : Advanced Video Codec\r\nFormat profile                           :   \r\nFormat settings, CABAC                   : Yes\r\nFormat settings, ReFrames                : 5 frames\r\nCodec ID                                 : avc1\r\nCodec ID/Info                            : Advanced Video Coding\r\nDuration                                 : 2h 26mn\r\nBit rate                                 : 1 967 Kbps\r\nMaximum bit rate                         : 6 544 Kbps\r\nWidth                                    : 960 pixels\r\nHeight                                   : 522 pixels\r\nDisplay aspect ratio                     : 1.85:1\r\nFrame rate mode                          : Constant\r\nFrame rate                               : 23.976 fps\r\nColor space                              : YUV\r\nChroma subsampling                       : 4:2:0\r\nBit depth                                : 8 bits\r\nScan type                                : Progressive\r\nBits/(Pixel*Frame)                       : 0.164\r\nStream size                              : 2.01 GiB (92%)\r\nTitle                                    : A Woman Under The Influence\r\nWriting library                          : x264 core 129 r2230 1cffe9f\r\n\r\nAudio\r\nID                                       : 2\r\nFormat                                   : AAC\r\nFormat/Info                              : Advanced Audio Codec\r\nFormat profile                           : LC\r\nCodec ID                                 : 40\r\nDuration                                 : 2h 26mn\r\nBit rate mode                            : Variable\r\nBit rate                                 : 159 Kbps\r\nMaximum bit rate                         : 186 Kbps\r\nChannel(s)                               : 2 channels\r\nChannel positions                        : Front: L R\r\nSampling rate                            : 48.0 KHz\r\nCompression mode                         : Lossy\r\nStream size                              : 166 MiB (7%)\r\nTitle                                    : A Woman Under The Influence\r\nLanguage                                 : English\r\n\r\nText\r\nID                                       : 3\r\nFormat                                   : Timed Text\r\nCodec ID                                 : tx3g\r\nDuration                                 : 2h 26mn\r\nBit rate mode                            : Variable\r\nBit rate                                 : 111 bps\r\nStream size                              : 119 KiB (0%)\r\nTitle                                    : Hearing Impaired Subtitles\r\nLanguage                                 : Ukrainian\r\n\r\nSynchronized English subtitles are also available on Opensubtitles(dot)org","torrent":{"xt":"urn:btih:1ad6fa1407e5ca445098c599bc8e9ec75ea02c8d","amp;dn":"A+Woman+Under+The+Influence+%5BJohn+Cassavetes%2C+1974%5D+X264-AAC","amp;tr":["udp%3A%2F%2Ftracker.leechers-paradise.org%3A6969","udp%3A%2F%2Fzer0day.ch%3A1337","udp%3A%2F%2Fopen.demonii.com%3A1337","udp%3A%2F%2Ftracker.coppersurfer.tk%3A6969","udp%3A%2F%2Fexodus.desync.com%3A6969"],"infoHash":"1ad6fa1407e5ca445098c599bc8e9ec75ea02c8d","infoHashBuffer":{"type":"Buffer","data":[26,214,250,20,7,229,202,68,80,152,197,153,188,142,158,199,94,160,44,141]},"announce":[],"urlList":[]}}